<?xml version="1.0" standalone="no"?>
<!DOCTYPE svg PUBLIC "-//W3C//DTD SVG 20010904//EN"
 "http://www.w3.org/TR/2001/REC-SVG-20010904/DTD/svg10.dtd">
<svg version="1.0" xmlns="http://www.w3.org/2000/svg"
 width="700.000000pt" height="700.000000pt" viewBox="0 0 700.000000 700.000000"
 preserveAspectRatio="xMidYMid meet">
<metadata>
Created by potrace 1.11, written by Peter Selinger 2001-2013
</metadata>
<g transform="translate(0.000000,700.000000) scale(0.100000,-0.100000)"
fill="#000000" stroke="none">
<path d="M1200 6990 c-19 -4 -53 -10 -75 -13 -22 -3 -53 -10 -68 -16 -15 -6
-27 -8 -27 -6 0 10 -196 -67 -278 -110 -266 -138 -488 -392 -599 -685 -14 -36
-37 -112 -51 -170 l-26 -105 -3 -1535 c-1 -1272 1 -1550 12 -1625 89 -572 515
-1000 1090 -1096 41 -7 219 -12 435 -14 436 -3 396 -1 406 -22 4 -10 8 -340 9
-733 1 -665 3 -718 19 -753 36 -75 115 -115 201 -103 41 7 56 17 124 84 42 42
135 140 207 217 71 77 136 147 144 156 8 8 71 75 140 149 69 73 145 154 170
180 25 27 99 105 165 176 181 192 179 190 300 319 62 66 130 138 150 160 114
121 148 156 163 164 9 4 431 8 937 8 506 0 958 3 1004 7 188 16 418 90 549
177 24 16 45 29 48 29 3 0 33 21 67 47 82 63 192 174 247 248 25 33 47 62 50
65 29 29 178 345 162 345 -1 0 4 23 12 50 15 50 20 77 33 170 10 65 10 2997 1
3095 -21 211 -105 430 -236 612 -87 122 -255 283 -352 337 -135 76 -276 138
-353 156 -12 3 -53 13 -92 22 -65 16 -246 17 -2360 19 -1259 1 -2306 -2 -2325
-6z"/>
</g>
</svg>
